<svg width="512" height="512" xmlns="http://www.w3.org/2000/svg">

 <g>
  <title>background</title>
  <rect fill="none" id="canvas_background" height="402" width="582" y="-1" x="-1"/>
 </g>
 <g>
  <title>Layer 1</title>
  <path fill="#e27028" id="svg_1" d="m257.079258,512c-141.375,0 -256,-114.625 -256,-256s114.625,-256 256,-256s256,114.625 256,256s-114.625,256 -256,256zm0,-448c-106.031,0 -192,85.969 -192,192s85.969,192 192,192c106.03,0 192,-85.969 192,-192s-85.969,-192 -192,-192zm0,320c-70.688,0 -128,-57.312 -128,-128c0,-70.688 57.312,-128 128,-128c70.688,0 128,57.312 128,128c0,70.688 -57.312,128 -128,128z"/>
 </g>
</svg>